<?xml version="1.0" encoding="UTF-8"?>
<!DOCTYPE svg PUBLIC "-//W3C//DTD SVG 1.1//EN" "http://www.w3.org/Graphics/SVG/1.1/DTD/svg11.dtd">
<!-- Creator: CorelDRAW 2017 -->
<svg xmlns="http://www.w3.org/2000/svg" xml:space="preserve" version="1.1" style="shape-rendering:geometricPrecision; text-rendering:geometricPrecision; image-rendering:optimizeQuality; fill-rule:evenodd; clip-rule:evenodd"
viewBox="0 0 582.1 582.1"
 xmlns:xlink="http://www.w3.org/1999/xlink">
  <path class="fil0" d="M555.63 79.38c0,-14.62 -5.93,-27.86 -15.49,-37.42 -9.56,-9.56 -22.8,-15.49 -37.42,-15.49 -14.61,0 -27.86,5.93 -37.42,15.49 -9.56,9.56 -15.49,22.8 -15.49,37.42 0,14.61 5.93,27.86 15.49,37.42 9.56,9.56 22.81,15.49 37.42,15.49 14.62,0 27.86,-5.93 37.42,-15.49 9.56,-9.56 15.49,-22.81 15.49,-37.42zm3.21 -56.12c14.36,14.36 23.25,34.21 23.25,56.12 0,21.9 -8.89,41.76 -23.25,56.12 -14.36,14.36 -34.21,23.25 -56.12,23.25 -21.9,0 -41.76,-8.89 -56.12,-23.25 -14.36,-14.36 -23.25,-34.22 -23.25,-56.12 0,-21.91 8.89,-41.76 23.25,-56.12 14.36,-14.36 34.22,-23.25 56.12,-23.25 21.91,0 41.76,8.89 56.12,23.25zm-224.88 56.12c0,-14.62 -5.93,-27.86 -15.49,-37.42 -9.56,-9.56 -22.8,-15.49 -37.42,-15.49 -14.62,0 -27.86,5.93 -37.42,15.49 -9.56,9.56 -15.49,22.8 -15.49,37.42 0,14.61 5.93,27.86 15.49,37.42 9.56,9.56 22.8,15.49 37.42,15.49 14.62,0 27.86,-5.93 37.42,-15.49 9.56,-9.56 15.49,-22.81 15.49,-37.42zm3.21 -56.12c14.36,14.36 23.25,34.21 23.25,56.12 0,21.9 -8.89,41.76 -23.25,56.12 -14.36,14.36 -34.21,23.25 -56.12,23.25 -21.91,0 -41.76,-8.89 -56.12,-23.25 -14.36,-14.36 -23.25,-34.22 -23.25,-56.12 0,-21.91 8.89,-41.76 23.25,-56.12 14.36,-14.36 34.21,-23.25 56.12,-23.25 21.91,0 41.76,8.89 56.12,23.25zm-204.88 56.12c0,-14.62 -5.93,-27.86 -15.49,-37.42 -9.56,-9.56 -22.81,-15.49 -37.42,-15.49 -14.62,0 -27.86,5.93 -37.42,15.49 -9.56,9.56 -15.49,22.8 -15.49,37.42 0,14.61 5.93,27.86 15.49,37.42 9.56,9.56 22.8,15.49 37.42,15.49 14.61,0 27.86,-5.93 37.42,-15.49 9.56,-9.56 15.49,-22.81 15.49,-37.42zm3.21 -56.12c14.36,14.36 23.25,34.21 23.25,56.12 0,21.9 -8.89,41.76 -23.25,56.12 -14.36,14.36 -34.22,23.25 -56.12,23.25 -21.91,0 -41.76,-8.89 -56.12,-23.25 -14.36,-14.36 -23.25,-34.22 -23.25,-56.12 0,-21.91 8.89,-41.76 23.25,-56.12 14.36,-14.36 34.21,-23.25 56.12,-23.25 21.9,0 41.76,8.89 56.12,23.25zm420.13 267.79c0,-14.62 -5.93,-27.86 -15.49,-37.42 -9.56,-9.56 -22.8,-15.49 -37.42,-15.49 -14.61,0 -27.86,5.93 -37.42,15.49 -9.56,9.56 -15.49,22.8 -15.49,37.42 0,14.62 5.93,27.86 15.49,37.42 9.56,9.56 22.81,15.49 37.42,15.49 14.62,0 27.86,-5.93 37.42,-15.49 9.56,-9.56 15.49,-22.8 15.49,-37.42zm3.21 -56.12c14.36,14.36 23.25,34.21 23.25,56.12 0,21.91 -8.89,41.76 -23.25,56.12 -14.36,14.36 -34.21,23.25 -56.12,23.25 -21.9,0 -41.76,-8.89 -56.12,-23.25 -14.36,-14.36 -23.25,-34.21 -23.25,-56.12 0,-21.91 8.89,-41.76 23.25,-56.12 14.36,-14.36 34.22,-23.25 56.12,-23.25 21.91,0 41.76,8.89 56.12,23.25zm-214.88 56.12c0,-14.62 -5.93,-27.86 -15.49,-37.42 -9.56,-9.56 -22.8,-15.49 -37.42,-15.49 -14.62,0 -27.86,5.93 -37.42,15.49 -9.56,9.56 -15.49,22.8 -15.49,37.42 0,14.62 5.93,27.86 15.49,37.42 9.56,9.56 22.8,15.49 37.42,15.49 14.62,0 27.86,-5.93 37.42,-15.49 9.56,-9.56 15.49,-22.8 15.49,-37.42zm3.21 -56.12c14.36,14.36 23.25,34.21 23.25,56.12 0,21.91 -8.89,41.76 -23.25,56.12 -14.36,14.36 -34.21,23.25 -56.12,23.25 -21.91,0 -41.76,-8.89 -56.12,-23.25 -14.36,-14.36 -23.25,-34.21 -23.25,-56.12 0,-21.91 8.89,-41.76 23.25,-56.12 14.36,-14.36 34.21,-23.25 56.12,-23.25 21.91,0 41.76,8.89 56.12,23.25zm-214.88 56.12c0,-14.62 -5.93,-27.86 -15.49,-37.42 -9.56,-9.56 -22.81,-15.49 -37.42,-15.49 -14.62,0 -27.86,5.93 -37.42,15.49 -9.56,9.56 -15.49,22.8 -15.49,37.42 0,14.62 5.93,27.86 15.49,37.42 9.56,9.56 22.8,15.49 37.42,15.49 14.61,0 27.86,-5.93 37.42,-15.49 9.56,-9.56 15.49,-22.8 15.49,-37.42zm3.21 -56.12c14.36,14.36 23.25,34.21 23.25,56.12 0,21.91 -8.89,41.76 -23.25,56.12 -14.36,14.36 -34.22,23.25 -56.12,23.25 -21.91,0 -41.76,-8.89 -56.12,-23.25 -14.36,-14.36 -23.25,-34.21 -23.25,-56.12 0,-21.91 8.89,-41.76 23.25,-56.12 14.36,-14.36 34.21,-23.25 56.12,-23.25 21.9,0 41.76,8.89 56.12,23.25zm420.13 267.79c0,-14.61 -5.93,-27.86 -15.49,-37.42 -9.56,-9.56 -22.8,-15.49 -37.42,-15.49 -14.61,0 -27.86,5.93 -37.42,15.49 -9.56,9.56 -15.49,22.81 -15.49,37.42 0,14.62 5.93,27.86 15.49,37.42 9.56,9.56 22.81,15.49 37.42,15.49 14.62,0 27.86,-5.93 37.42,-15.49 9.56,-9.56 15.49,-22.8 15.49,-37.42zm3.21 -56.12c14.36,14.36 23.25,34.22 23.25,56.12 0,21.91 -8.89,41.76 -23.25,56.12 -14.36,14.36 -34.21,23.25 -56.12,23.25 -21.9,0 -41.76,-8.89 -56.12,-23.25 -14.36,-14.36 -23.25,-34.21 -23.25,-56.12 0,-21.9 8.89,-41.76 23.25,-56.12 14.36,-14.36 34.22,-23.25 56.12,-23.25 21.91,0 41.76,8.89 56.12,23.25zm-214.88 56.12c0,-14.61 -5.93,-27.86 -15.49,-37.42 -9.56,-9.56 -22.8,-15.49 -37.42,-15.49 -14.62,0 -27.86,5.93 -37.42,15.49 -9.56,9.56 -15.49,22.81 -15.49,37.42 0,14.62 5.93,27.86 15.49,37.42 9.56,9.56 22.8,15.49 37.42,15.49 14.62,0 27.86,-5.93 37.42,-15.49 9.56,-9.56 15.49,-22.8 15.49,-37.42zm3.21 -56.12c14.36,14.36 23.25,34.22 23.25,56.12 0,21.91 -8.89,41.76 -23.25,56.12 -14.36,14.36 -34.21,23.25 -56.12,23.25 -21.91,0 -41.76,-8.89 -56.12,-23.25 -14.36,-14.36 -23.25,-34.21 -23.25,-56.12 0,-21.9 8.89,-41.76 23.25,-56.12 14.36,-14.36 34.21,-23.25 56.12,-23.25 21.91,0 41.76,8.89 56.12,23.25zm-214.88 56.12c0,-14.61 -5.93,-27.86 -15.49,-37.42 -9.56,-9.56 -22.81,-15.49 -37.42,-15.49 -14.62,0 -27.86,5.93 -37.42,15.49 -9.56,9.56 -15.49,22.81 -15.49,37.42 0,14.62 5.93,27.86 15.49,37.42 9.56,9.56 22.8,15.49 37.42,15.49 14.61,0 27.86,-5.93 37.42,-15.49 9.56,-9.56 15.49,-22.8 15.49,-37.42zm3.21 -56.12c14.36,14.36 23.25,34.22 23.25,56.12 0,21.91 -8.89,41.76 -23.25,56.12 -14.36,14.36 -34.22,23.25 -56.12,23.25 -21.91,0 -41.76,-8.89 -56.12,-23.25 -14.36,-14.36 -23.25,-34.21 -23.25,-56.12 0,-21.9 8.89,-41.76 23.25,-56.12 14.36,-14.36 34.21,-23.25 56.12,-23.25 21.9,0 41.76,8.89 56.12,23.25z"/>
</svg>
