<svg xmlns="http://www.w3.org/2000/svg" viewBox="0 0 22.44 12.656">
  <path id="в_конткте" data-name="в конткте" class="cls-1" d="M1388.34,544.662c-0.03-.058-0.06-0.106-0.08-0.145a11.8,11.8,0,0,0-2.23-2.556l-0.03-.022-0.01-.011-0.01-.012h-0.01a13.3,13.3,0,0,1-.95-0.948,0.871,0.871,0,0,1-.16-0.937,8.289,8.289,0,0,1,1.05-1.515c0.32-.408.57-0.736,0.76-0.983,1.35-1.773,1.93-2.906,1.75-3.4l-0.07-.116a0.631,0.631,0,0,0-.36-0.19,1.844,1.844,0,0,0-.75-0.029l-3.36.023a0.469,0.469,0,0,0-.24.006l-0.15.034-0.06.03-0.05.034a0.531,0.531,0,0,0-.12.122,0.676,0.676,0,0,0-.12.2,18.864,18.864,0,0,1-1.25,2.6c-0.29.479-.55,0.893-0.8,1.243a6.12,6.12,0,0,1-.6.775,5.237,5.237,0,0,1-.45.4,0.419,0.419,0,0,1-.3.127c-0.07-.015-0.14-0.03-0.2-0.046a0.717,0.717,0,0,1-.26-0.283,1.141,1.141,0,0,1-.14-0.451,4.706,4.706,0,0,1-.04-0.469c0-.131,0-0.316.01-0.555s0.01-.4.01-0.485c0-.294,0-0.612.02-0.954s0.02-.615.02-0.815,0.02-.413.02-0.636a3.356,3.356,0,0,0-.04-0.527,1.7,1.7,0,0,0-.13-0.37,0.57,0.57,0,0,0-.24-0.277,1.219,1.219,0,0,0-.39-0.156,7.82,7.82,0,0,0-1.58-.151,7.7,7.7,0,0,0-2.79.278,1.766,1.766,0,0,0-.45.347c-0.14.169-.15,0.262-0.05,0.277a1.438,1.438,0,0,1,.99.5l0.07,0.139a2.233,2.233,0,0,1,.16.533,5.164,5.164,0,0,1,.11.843,8.653,8.653,0,0,1,0,1.445c-0.04.4-.08,0.713-0.11,0.937a2.022,2.022,0,0,1-.16.544c-0.07.138-.12,0.223-0.14,0.254a0.141,0.141,0,0,1-.06.058,0.894,0.894,0,0,1-.31.058,0.728,0.728,0,0,1-.4-0.163,2.7,2.7,0,0,1-.49-0.445,6.681,6.681,0,0,1-.56-0.792q-0.315-.508-0.66-1.2l-0.19-.336c-0.11-.215-0.27-0.53-0.47-0.942a13.062,13.062,0,0,1-.54-1.2,0.777,0.777,0,0,0-.28-0.37l-0.06-.034a0.766,0.766,0,0,0-.19-0.1,1.109,1.109,0,0,0-.27-0.075l-3.2.023a0.827,0.827,0,0,0-.67.22l-0.04.07a0.3,0.3,0,0,0-.04.184,0.839,0.839,0,0,0,.07.312q0.705,1.632,1.53,3.145c0.55,1.011,1.02,1.824,1.43,2.44s0.82,1.2,1.24,1.746,0.7,0.9.83,1.052,0.25,0.271.33,0.347l0.29,0.278a6.452,6.452,0,0,0,.82.665,14.03,14.03,0,0,0,1.21.763,6.645,6.645,0,0,0,1.53.613,5.41,5.41,0,0,0,1.71.19h1.34a0.916,0.916,0,0,0,.62-0.254l0.05-.058a0.9,0.9,0,0,0,.09-0.213,1.074,1.074,0,0,0,.04-0.318,4.141,4.141,0,0,1,.07-0.9,2.6,2.6,0,0,1,.2-0.6,1.487,1.487,0,0,1,.26-0.341,1.3,1.3,0,0,1,.19-0.167,0.529,0.529,0,0,1,.1-0.041,0.757,0.757,0,0,1,.66.179,3.943,3.943,0,0,1,.71.671c0.22,0.266.49,0.564,0.8,0.9a5.537,5.537,0,0,0,.82.74l0.23,0.139a2.987,2.987,0,0,0,.61.255,1.351,1.351,0,0,0,.66.058l2.99-.046a1.353,1.353,0,0,0,.69-0.145,0.58,0.58,0,0,0,.29-0.319,1.02,1.02,0,0,0,.01-0.393A2.538,2.538,0,0,0,1388.34,544.662Z" transform="translate(-1366 -533.219)"/>
</svg>
