<svg xmlns="http://www.w3.org/2000/svg" viewBox="0 0 28 34.38">
  <path id="exl" class="cls-1" d="M947.306,4200.3H933.493a3.664,3.664,0,0,0-3.661,3.66v13.54h-0.357a1.476,1.476,0,0,0-1.475,1.48v8.94a1.476,1.476,0,0,0,1.475,1.48h0.357v1.64a3.664,3.664,0,0,0,3.661,3.66h18.848a3.663,3.663,0,0,0,3.659-3.66v-22.08Zm-15.551,20.21h1.61l0.543,1.13c0.185,0.38.323,0.68,0.47,1.03H934.4c0.147-.39.267-0.67,0.424-1.03l0.525-1.13h1.6l-1.749,3.03,1.841,3.17h-1.62l-0.561-1.12c-0.23-.43-0.378-0.76-0.553-1.12h-0.018c-0.129.36-.285,0.69-0.479,1.12l-0.515,1.12h-1.6l1.795-3.14Zm20.586,11.95H933.493a1.423,1.423,0,0,1-1.418-1.42v-1.64h17.57a1.476,1.476,0,0,0,1.475-1.48v-8.94a1.476,1.476,0,0,0-1.475-1.48h-17.57v-13.54a1.423,1.423,0,0,1,1.418-1.42l12.975-.01v4.8a2.541,2.541,0,0,0,2.538,2.54l4.7-.02,0.053,21.19A1.421,1.421,0,0,1,952.341,4232.46Zm-10.67-6.93v1.18H937.8v-6.2H939.2v5.02h2.467Zm2.377-1.42a2.053,2.053,0,0,1-1.7-1.83c0-1.06.884-1.87,2.347-1.87a3.744,3.744,0,0,1,1.584.31l-0.313,1.13a2.96,2.96,0,0,0-1.3-.29,0.732,0.732,0,0,0-.9.6c0,0.39.349,0.57,1.15,0.87a1.963,1.963,0,0,1,1.611,1.85c0,1.04-.8,1.92-2.5,1.92a4.125,4.125,0,0,1-1.759-.37l0.286-1.16a3.626,3.626,0,0,0,1.555.38c0.645,0,.985-0.26.985-0.67C945.088,4224.6,944.794,4224.37,944.048,4224.11Z" transform="translate(-928 -4200.31)"/>
</svg>
