<svg xmlns="http://www.w3.org/2000/svg" viewBox="0 0 28 34.38">
  <path id="PDF" class="cls-1" d="M1367.31,4200.3h-13.82a3.662,3.662,0,0,0-3.66,3.66v13.54h-0.36a1.475,1.475,0,0,0-1.47,1.48v8.94a1.475,1.475,0,0,0,1.47,1.48h0.36v1.64a3.662,3.662,0,0,0,3.66,3.66h18.85a3.662,3.662,0,0,0,3.66-3.66v-22.08Zm5.03,32.16h-18.85a1.417,1.417,0,0,1-1.41-1.42v-1.64h17.57a1.475,1.475,0,0,0,1.47-1.48v-8.94a1.475,1.475,0,0,0-1.47-1.48h-17.57v-13.54a1.417,1.417,0,0,1,1.41-1.42l12.98-.01v4.8a2.537,2.537,0,0,0,2.54,2.54l4.69-.02,0.06,21.19A1.425,1.425,0,0,1,1372.34,4232.46Zm-18.01-10.03a0.937,0.937,0,0,0-1.12-.91,3.114,3.114,0,0,0-.6.05v1.84a2.962,2.962,0,0,0,.48.03A1.047,1.047,0,0,0,1354.33,4222.43Zm4.46-.89a3.964,3.964,0,0,0-.66.05v4.06a2.532,2.532,0,0,0,.5.03,1.949,1.949,0,0,0,2.16-2.17A1.8,1.8,0,0,0,1358.79,4221.54Zm-7.61-.95a12.508,12.508,0,0,1,1.95-.13,3.14,3.14,0,0,1,1.95.5,1.779,1.779,0,0,1,.68,1.43,2,2,0,0,1-.58,1.48,3.052,3.052,0,0,1-2.08.65,3.377,3.377,0,0,1-.49-0.03v2.22h-1.43v-6.12Zm5.5,6.09v-6.09a13.613,13.613,0,0,1,1.95-.13,4.216,4.216,0,0,1,2.62.66,2.735,2.735,0,0,1,1.08,2.34,3.14,3.14,0,0,1-1.06,2.52,4.727,4.727,0,0,1-2.95.8A11.854,11.854,0,0,1,1356.68,4226.68Zm10.34-3.6v1.14h-2.3v2.49h-1.44v-6.2h3.9v1.15h-2.46v1.42h2.3Z" transform="translate(-1348 -4200.31)"/>
</svg>
