<svg xmlns="http://www.w3.org/2000/svg" viewBox="0 0 28 34.38">
  <path id="WORD" class="cls-1" d="M1157.71,4200.3h-13.82a3.668,3.668,0,0,0-3.66,3.66v13.54h-0.36a1.475,1.475,0,0,0-1.47,1.48v8.94a1.475,1.475,0,0,0,1.47,1.48h0.36v1.64a3.662,3.662,0,0,0,3.66,3.66h18.85a3.662,3.662,0,0,0,3.66-3.66v-22.08Zm5.03,32.16h-18.85a1.417,1.417,0,0,1-1.41-1.42v-1.64h17.57a1.475,1.475,0,0,0,1.47-1.48v-8.94a1.475,1.475,0,0,0-1.47-1.48h-17.57v-13.54a1.417,1.417,0,0,1,1.41-1.42l12.98-.01v4.8a2.537,2.537,0,0,0,2.54,2.54l4.69-.02,0.06,21.19A1.425,1.425,0,0,1,1162.74,4232.46Zm-21.7-6.27h0.84l0.83-2.97,0.84,2.97h0.84l1.04-4.59h-0.86l-0.66,2.93-0.83-2.93h-0.73l-0.82,2.93-0.66-2.93H1140Zm6.04-4.39a2.473,2.473,0,0,0-.88.88,2.4,2.4,0,0,0-.32,1.21,2.348,2.348,0,0,0,.69,1.7,2.39,2.39,0,0,0,3.4.02,2.425,2.425,0,0,0-1.69-4.13A2.4,2.4,0,0,0,1147.08,4221.8Zm2.27,0.99a1.62,1.62,0,0,1,0,2.22,1.429,1.429,0,0,1-1.06.45,1.475,1.475,0,0,1-.98-0.35,1.456,1.456,0,0,1-.54-1.2,1.546,1.546,0,0,1,.43-1.13,1.426,1.426,0,0,1,1.07-.44A1.473,1.473,0,0,1,1149.35,4222.79Zm2.2,3.4h0.87v-1.94h0.08l1.04,1.94h0.95l-1.09-2.04a1.358,1.358,0,0,0,.66-0.46,1.331,1.331,0,0,0,.21-0.76,1.4,1.4,0,0,0-.19-0.75,1.128,1.128,0,0,0-.52-0.45,3.155,3.155,0,0,0-1.09-.13h-0.92v4.59Zm0.87-3.74h0.24a1.681,1.681,0,0,1,.48.05,0.375,0.375,0,0,1,.21.16,0.446,0.446,0,0,1,.08.26,0.391,0.391,0,0,1-.16.36,1,1,0,0,1-.57.11h-0.28v-0.94Zm2.78,3.74h1.06a4.58,4.58,0,0,0,1.25-.11,1.584,1.584,0,0,0,.67-0.41,1.957,1.957,0,0,0,.49-0.74,2.539,2.539,0,0,0,.18-0.97,2.621,2.621,0,0,0-.32-1.31,2.012,2.012,0,0,0-.8-0.81,3.537,3.537,0,0,0-1.49-.24h-1.04v4.59Zm1.17-3.75a1.634,1.634,0,0,1,1.18.36,1.5,1.5,0,0,1,.41,1.14,1.753,1.753,0,0,1-.17.8,0.985,0.985,0,0,1-.44.46,2.053,2.053,0,0,1-.87.14h-0.41v-2.9h0.3Z" transform="translate(-1138.41 -4200.31)"/>
</svg>
