<svg xmlns="http://www.w3.org/2000/svg" viewBox="0 0 16 16">
  <path id="инстаграмм" class="cls-1" d="M1451.4,531h-12.8a1.6,1.6,0,0,0-1.6,1.6v12.8a1.6,1.6,0,0,0,1.6,1.6h12.8a1.6,1.6,0,0,0,1.6-1.6V532.6A1.6,1.6,0,0,0,1451.4,531Zm-6.4,4.8a3.2,3.2,0,1,1-3.2,3.2A3.209,3.209,0,0,1,1445,535.8Zm-6,9.6a0.378,0.378,0,0,1-.4-0.4v-6.8h1.68a2.722,2.722,0,0,0-.08.8,4.8,4.8,0,0,0,9.6,0,2.722,2.722,0,0,0-.08-0.8h1.68V545a0.378,0.378,0,0,1-.4.4h-12Zm12.4-10.8a0.378,0.378,0,0,1-.4.4h-1.6a0.378,0.378,0,0,1-.4-0.4V533a0.378,0.378,0,0,1,.4-0.4h1.6a0.378,0.378,0,0,1,.4.4v1.6Z" transform="translate(-1437 -531)"/>
</svg>
