<svg xmlns="http://www.w3.org/2000/svg" viewBox="0 0 17 21">
  <path id="адрес" class="cls-1" d="M431.5,4490a8.47,8.47,0,0,0-8.5,8.42,8.213,8.213,0,0,0,.151,1.58c0,0.03.022,0.12,0.058,0.28a8.139,8.139,0,0,0,.569,1.66c0.915,2.13,2.928,5.41,7.344,8.93a0.615,0.615,0,0,0,.756,0c4.412-3.52,6.429-6.8,7.344-8.93a8.139,8.139,0,0,0,.569-1.66c0.036-.16.053-0.25,0.058-0.28A8.414,8.414,0,0,0,431.5,4490Zm7.163,9.79c0,0.01,0,.02,0,0.03s-0.018.09-.04,0.19v0.01a6.9,6.9,0,0,1-.494,1.43l-0.008.02a22.093,22.093,0,0,1-6.617,8.17,22.1,22.1,0,0,1-6.616-8.17l-0.008-.02a7.468,7.468,0,0,1-.494-1.43v-0.01c-0.026-.1-0.035-0.17-0.04-0.19s0-.02,0-0.03a7.171,7.171,0,0,1-.133-1.38,7.3,7.3,0,0,1,14.591,0A7.1,7.1,0,0,1,438.658,4499.79Zm-7.163-6.62a5.34,5.34,0,1,0,5.395,5.34A5.371,5.371,0,0,0,431.5,4493.17Zm0,9.5a4.16,4.16,0,1,1,4.195-4.16A4.183,4.183,0,0,1,431.5,4502.67Z" transform="translate(-423 -4490)"/>
</svg>
