<svg xmlns="http://www.w3.org/2000/svg" viewBox="0 0 20 16">
  <path id="почта" class="cls-1" d="M438.558,4449H423.446a2.511,2.511,0,0,0-2.446,2.57v10.86a2.511,2.511,0,0,0,2.446,2.57h15.108a2.511,2.511,0,0,0,2.446-2.57v-10.85A2.514,2.514,0,0,0,438.558,4449Zm1.329,13.43a1.369,1.369,0,0,1-1.329,1.4H423.446a1.369,1.369,0,0,1-1.329-1.4v-10.85a1.369,1.369,0,0,1,1.329-1.4h15.108a1.368,1.368,0,0,1,1.328,1.4v10.85h0Zm-6.274-5.56,4.891-4.62a0.609,0.609,0,0,0,.042-0.83,0.54,0.54,0,0,0-.791-0.04l-6.745,6.36-1.316-1.23a0.012,0.012,0,0,0-.008-0.01,0.552,0.552,0,0,0-.091-0.09l-5.355-5.04a0.548,0.548,0,0,0-.79.05,0.606,0.606,0,0,0,.045.83l4.949,4.65-4.928,4.85a0.623,0.623,0,0,0-.025.84,0.557,0.557,0,0,0,.79.03l5-4.92,1.357,1.27a0.538,0.538,0,0,0,.745,0l1.394-1.32,4.974,4.97a0.536,0.536,0,0,0,.385.16,0.55,0.55,0,0,0,.406-0.18,0.609,0.609,0,0,0-.021-0.83Z" transform="translate(-421 -4449)"/>
</svg>
