<?xml version="1.0" encoding="UTF-8"?>
<!DOCTYPE svg PUBLIC "-//W3C//DTD SVG 1.1//EN" "http://www.w3.org/Graphics/SVG/1.1/DTD/svg11.dtd">
<!-- Creator: CorelDRAW 2017 -->
<svg xmlns="http://www.w3.org/2000/svg" xml:space="preserve" version="1.1" style="shape-rendering:geometricPrecision; text-rendering:geometricPrecision; image-rendering:optimizeQuality; fill-rule:evenodd; clip-rule:evenodd"
viewBox="0 0 159.4 291.9"
 xmlns:xlink="http://www.w3.org/1999/xlink">
  <path id="пагинация" class="fil0" d="M155.93 138.44l-135.39 -135.2c-2.39,-2.09 -5.47,-3.24 -8.65,-3.24 -3.04,0 -5.99,1.05 -8.35,2.97 -2.24,1.86 -3.53,4.63 -3.53,7.54 0,2.92 1.29,5.68 3.53,7.55l127 127.79 -127 128.06c-2.24,1.8 -3.54,4.52 -3.54,7.4 0,2.88 1.3,5.61 3.54,7.41 2.3,2.04 5.29,3.17 8.37,3.17 0.03,0 0.06,0 0.09,0 0.04,0 0.08,0 0.12,0 3.1,0 6.1,-1.13 8.43,-3.17l135.39 -135.2c2.2,-1.88 3.48,-4.64 3.48,-7.55 0,-2.9 -1.28,-5.66 -3.49,-7.54l0 0.01z"/>
</svg>
