<?xml version="1.0" encoding="UTF-8"?>
<!DOCTYPE svg PUBLIC "-//W3C//DTD SVG 1.1//EN" "http://www.w3.org/Graphics/SVG/1.1/DTD/svg11.dtd">
<!-- Creator: CorelDRAW 2017 -->
<svg xmlns="http://www.w3.org/2000/svg" xml:space="preserve" version="1.1" style="shape-rendering:geometricPrecision; text-rendering:geometricPrecision; image-rendering:optimizeQuality; fill-rule:evenodd; clip-rule:evenodd"
viewBox="0 0 4611.9 4607.2"
 xmlns:xlink="http://www.w3.org/1999/xlink">
  <path class="fil0" d="M1920.1 441.71c819.31,0 1483.49,664.18 1483.49,1483.49 0,819.32 -664.18,1483.5 -1483.49,1483.5 -819.3,0 -1483.48,-664.18 -1483.48,-1483.5 0,-819.31 664.18,-1483.49 1483.48,-1483.49zm1523.4 2725.02c282.38,-346.18 436.82,-779.82 436.82,-1226.49 0,-1071.4 -868.82,-1940.21 -1940.11,-1940.21 -1071.4,0 -1940.21,868.81 -1940.21,1940.21 0,1071.29 868.81,1940.11 1940.21,1940.11 448.75,0 884.35,-156.08 1231.2,-440.87l1112.01 1111.13c35.9,36.23 84.93,56.59 135.93,56.59 106.28,0 192.53,-86.25 192.53,-192.52 0,-51.01 -20.25,-100.04 -56.37,-136.16l0 0.22 -1112.01 -1112.01z"/>
</svg>
