<?xml version="1.0" encoding="UTF-8"?>
<!DOCTYPE svg PUBLIC "-//W3C//DTD SVG 1.1//EN" "http://www.w3.org/Graphics/SVG/1.1/DTD/svg11.dtd">
<!-- Creator: CorelDRAW 2017 -->
<svg xmlns="http://www.w3.org/2000/svg" xml:space="preserve" version="1.1" style="shape-rendering:geometricPrecision; text-rendering:geometricPrecision; image-rendering:optimizeQuality; fill-rule:evenodd; clip-rule:evenodd"
viewBox="0 0 370.4 264.6"
 xmlns:xlink="http://www.w3.org/1999/xlink">
  <path id="список_новосте" class="fil0" d="M105.82 0.01l264.59 0 0 52.92 -264.59 -0.01 0 -52.92 0 0.01zm0 105.83l264.59 0 0 52.92 -264.59 0 0 -52.92zm0 105.84l264.59 0 0 52.92 -264.59 -0.01 0 -52.92 0 0.01zm-105.83 -211.67l79.38 0 0 52.92 -79.38 -0.01 0 -52.92 0 0.01zm0 105.83l79.38 0 0 52.92 -79.38 0 0 -52.92zm0 105.84l79.38 0 0 52.92 -79.38 -0.01 0 -52.92 0 0.01z"/>
</svg>
