<?xml version="1.0" encoding="UTF-8"?>
<!DOCTYPE svg PUBLIC "-//W3C//DTD SVG 1.1//EN" "http://www.w3.org/Graphics/SVG/1.1/DTD/svg11.dtd">
<!-- Creator: CorelDRAW 2017 -->
<svg xmlns="http://www.w3.org/2000/svg" xml:space="preserve" version="1.1" style="shape-rendering:geometricPrecision; text-rendering:geometricPrecision; image-rendering:optimizeQuality; fill-rule:evenodd; clip-rule:evenodd"
viewBox="0 0 21000 21000"
 xmlns:xlink="http://www.w3.org/1999/xlink">
  <path class="fil0" d="M11775.22 13106.63l-3681.3 -2428.65 3681.3 -2428.66 0 4857.31zm-1275.22 -13106.63c5789.7,0 10500,4710.3 10500,10500 0,5789.7 -4710.3,10500 -10500,10500 -5789.7,0 -10500,-4710.3 -10500,-10500 0,-5789.7 4710.3,-10500 10500,-10500zm0 20475c5500.43,0 9975,-4474.57 9975,-9975 0,-5500.43 -4474.57,-9975 -9975,-9975 -5500.43,0 -9975,4474.58 -9975,9975 0,5500.42 4474.57,9975 9975,9975z"/>
</svg>
