<svg xmlns="http://www.w3.org/2000/svg" viewBox="0 0 57 42">
  <path id="приемущества_3" data-name="приемущества 3" class="cls-1" d="M989.644,1792.96L979.1,1782.18a1.086,1.086,0,0,0-1.574,0,1.156,1.156,0,0,0,0,1.61l9.759,9.97-5.706,5.83a0.44,0.44,0,0,1-.634,0l-11.267-11.51a0.468,0.468,0,0,1,0-.65l3.829-3.92a1.144,1.144,0,0,0,0-1.6,1.086,1.086,0,0,0-1.574,0l-3.829,3.91a2.775,2.775,0,0,0-.568,3l-1.295,1.33h-9.055l-1.634-1.67a2.846,2.846,0,0,0,.1-0.73,2.729,2.729,0,0,0-.783-1.93l-3.726-3.81a1.087,1.087,0,0,0-1.575,0,1.158,1.158,0,0,0,0,1.61l3.726,3.81a0.454,0.454,0,0,1,0,.64l-0.31.32-10.96,11.2a0.094,0.094,0,0,0-.01.01,0.448,0.448,0,0,1-.621-0.01l-5.7-5.83,9.89-10.11a1.156,1.156,0,0,0,0-1.61,1.1,1.1,0,0,0-1.575,0l-10.677,10.91a1.158,1.158,0,0,0,0,1.61l6.493,6.64a2.652,2.652,0,0,0,1.891.8,2.682,2.682,0,0,0,.927-0.17l3.655,3.73a3.961,3.961,0,0,0-.445,1.82,3.849,3.849,0,0,0,3.8,3.89h0.014a3.854,3.854,0,0,0,3.79,3.89v0.01a3.847,3.847,0,0,0,3.8,3.88,3.723,3.723,0,0,0,1.787-.45l1.36,1.39a3.329,3.329,0,0,0,4.777,0,3.475,3.475,0,0,0,.986-2.3,3.382,3.382,0,0,0,2.26-1.02,3.536,3.536,0,0,0,1.007-2.53v-0.01a3.642,3.642,0,0,0,2.518-1.23,3.864,3.864,0,0,0,.988-2.59,3.573,3.573,0,0,0,2.464-1.09,3.783,3.783,0,0,0,.677-4.3l3.651-3.41a2.678,2.678,0,0,0,1.53.49,2.648,2.648,0,0,0,1.891-.8l6.493-6.64A1.144,1.144,0,0,0,989.644,1792.96Zm-40,16.04a1.615,1.615,0,1,1,1.578-1.62A1.6,1.6,0,0,1,949.646,1809Zm4.994,3.35a1.342,1.342,0,0,0-.132.13,1.565,1.565,0,0,1-1.043.41,1.615,1.615,0,1,1,1.578-1.62A1.655,1.655,0,0,1,954.64,1812.35Zm3.746,3.94s-0.01.01-.015,0.01a0.034,0.034,0,0,1-.016.02,1.568,1.568,0,0,1-1.1.46,1.6,1.6,0,0,1-1.578-1.61,1.64,1.64,0,0,1,.4-1.08c0.046-.04.09-0.09,0.133-0.13a1.563,1.563,0,0,1,1.043-.41,1.6,1.6,0,0,1,1.579,1.62A1.626,1.626,0,0,1,958.386,1816.29Zm15.442-8.68a1.395,1.395,0,0,1-2,0l-2.313-2.36a1.086,1.086,0,0,0-1.574,0,1.156,1.156,0,0,0,0,1.61l2.312,2.36h0l0.007,0.01a1.557,1.557,0,0,1,.044,2.13,1.487,1.487,0,0,1-2.15.08l-2.227-2.15a1.087,1.087,0,0,0-1.574.04,1.157,1.157,0,0,0,.043,1.61l2.425,2.34a1.269,1.269,0,0,1,.379.89,1.238,1.238,0,0,1-.355.89,1.187,1.187,0,0,1-1.717,0l-1.124-1.15a1.1,1.1,0,0,0-1.574,0,1.173,1.173,0,0,0-.326.81,1.132,1.132,0,0,0,.326.8l1.168,1.2a1.161,1.161,0,0,1,.337.83,1.178,1.178,0,0,1-.337.83,1.143,1.143,0,0,1-1.627,0l-1.362-1.39a3.974,3.974,0,0,0,.445-1.82,3.854,3.854,0,0,0-3.791-3.89v-0.01a3.856,3.856,0,0,0-3.8-3.89H953.45a3.847,3.847,0,0,0-3.8-3.88,3.716,3.716,0,0,0-1.786.45l-3.48-3.55,9.842-10.06,1.714,1.75a1.111,1.111,0,0,0,.787.33h1.441l-4.394,4.49a3.69,3.69,0,0,0,0,5.14,3.491,3.491,0,0,0,5.03,0l3.727-3.8,4.08,0.04,7.214,7.28A1.457,1.457,0,0,1,973.828,1807.61Zm0.8-4.42-6.781-6.84h0l-0.01-.01a1.1,1.1,0,0,0-.913-0.32l-4.845-.06a1.105,1.105,0,0,0-.8.34l-4.058,4.14a1.307,1.307,0,0,1-1.882,0,1.341,1.341,0,0,1-.39-0.96,1.375,1.375,0,0,1,.39-0.96l5.968-6.1H966.7a1.111,1.111,0,0,0,.787-0.33l1.483-1.52,9.152,9.36Zm7.141-10.04a1.135,1.135,0,1,1-1.111,1.13A1.124,1.124,0,0,1,981.773,1793.15Zm-40.7.11a1.135,1.135,0,1,1-1.111,1.14A1.125,1.125,0,0,1,941.078,1793.26Zm6.5-14.17a1.135,1.135,0,1,1-1.111,1.14A1.125,1.125,0,0,1,947.579,1779.09Zm27.786-.09a1.135,1.135,0,1,1-1.11,1.14A1.125,1.125,0,0,1,975.365,1779Z" transform="translate(-933 -1779)"/>
</svg>
