<svg xmlns="http://www.w3.org/2000/svg" viewBox="0 0 42 42">
  <path id="приемущества_4" data-name="приемущества 4" class="cls-1" d="M1193.88,1818.52a0.969,0.969,0,0,1-.96.97,10.754,10.754,0,0,1-5.17-1.33,10.955,10.955,0,0,1,5.17-20.55,10.833,10.833,0,0,1,10.26,7.4,0.967,0.967,0,0,1-.59,1.23,0.954,0.954,0,0,1-1.21-.6,8.948,8.948,0,1,0-8.46,11.92A0.96,0.96,0,0,1,1193.88,1818.52Zm5.34-9.98a6.3,6.3,0,1,1-6.3-6.35A6.338,6.338,0,0,1,1199.22,1808.54Zm-1.91,0a4.385,4.385,0,1,0-4.39,4.43A4.415,4.415,0,0,0,1197.31,1808.54Zm-6.24,18.42a3.419,3.419,0,0,1-1.37-.5l-0.43-4.2a0.967,0.967,0,0,0-.64-0.81,13.246,13.246,0,0,1-4.64-2.71,0.954,0.954,0,0,0-1.02-.16l-3.83,1.73a8.284,8.284,0,0,1-3.22-5.63l3.4-2.48a0.989,0.989,0,0,0,.38-0.97,13.478,13.478,0,0,1-.26-2.69,14.469,14.469,0,0,1,.26-2.71,0.956,0.956,0,0,0-.37-0.97l-3.41-2.49a6.229,6.229,0,0,1,1.04-3.14,6.309,6.309,0,0,1,2.18-2.49l3.85,1.74a0.952,0.952,0,0,0,1.02-.15,13.406,13.406,0,0,1,4.61-2.69,0.963,0.963,0,0,0,.65-0.82l0.43-4.24a8.3,8.3,0,0,1,6.44,0l0.44,4.24a0.952,0.952,0,0,0,.64.82,13.406,13.406,0,0,1,4.61,2.69,0.933,0.933,0,0,0,1.02.15l3.86-1.74a6.317,6.317,0,0,1,2.17,2.49,6.4,6.4,0,0,1,1.05,3.14l-3.41,2.49a0.962,0.962,0,0,0-.38.97c0.06,0.29.11,0.59,0.15,0.89a0.956,0.956,0,0,0,1.07.83,0.968,0.968,0,0,0,.82-1.09,2.629,2.629,0,0,0-.06-0.39l2.96-2.16c1.45-.93.62-3.61-0.54-5.65a10.651,10.651,0,0,0-2.04-2.6c-1.19-1.04-2.03-.96-2.54-0.69l-3.34,1.5a15.315,15.315,0,0,0-4.21-2.45l-0.37-3.67c-0.07-1.73-2.79-2.35-5.12-2.35-2.51,0-5.05.73-5.11,2.35l-0.38,3.67a15.315,15.315,0,0,0-4.21,2.45l-3.34-1.5c-1.52-.81-3.41,1.26-4.57,3.29a10.47,10.47,0,0,0-1.22,3.09c-0.3,1.56.19,2.25,0.68,2.56l2.95,2.16a15.628,15.628,0,0,0-.2,2.47,16.739,16.739,0,0,0,.19,2.45l-2.94,2.15c-0.49.31-.98,1.01-0.68,2.57a10.527,10.527,0,0,0,1.22,3.08c1.16,2.03,3.05,4.1,4.57,3.3l3.32-1.5a15.167,15.167,0,0,0,4.23,2.48l0.38,3.63c0.02,0.62.45,1.67,2.89,2.15a1.225,1.225,0,0,0,.19.02A0.965,0.965,0,0,0,1191.07,1826.96Zm24.8-12.08a17.21,17.21,0,0,1-6.46,11.48,16.887,16.887,0,0,1-10.47,3.64,15.626,15.626,0,0,1-2.15-.14,16.178,16.178,0,0,1-1.8-.32,0.96,0.96,0,0,1-.73-0.84,17.6,17.6,0,0,1,.05-3.84,17.148,17.148,0,0,1,19.08-14.99,18.132,18.132,0,0,1,1.79.32,0.98,0.98,0,0,1,.74.85A17.619,17.619,0,0,1,1215.87,1814.88Zm-1.8-2.95c-0.31-.06-0.62-0.11-0.92-0.15a15.228,15.228,0,0,0-16.94,13.32,13.54,13.54,0,0,0-.11,1.44l8.74-7.74a0.953,0.953,0,0,1,1.35.09,0.977,0.977,0,0,1-.09,1.37l-8.74,7.73a14.978,14.978,0,0,0,10.87-3.15A15.47,15.47,0,0,0,1214.07,1811.93Z" transform="translate(-1174 -1788)"/>
</svg>
