<svg xmlns="http://www.w3.org/2000/svg" viewBox="0 0 53 42.09">
  <path id="приемущества_5" data-name="приемущества 5" class="cls-1" d="M1429.2,1828.23a1.028,1.028,0,0,0-.73-0.3,1.024,1.024,0,0,0-1.03,1.03,1.07,1.07,0,0,0,.3.74,1.046,1.046,0,0,0,.73.3,1.041,1.041,0,0,0,1.04-1.04A1.014,1.014,0,0,0,1429.2,1828.23Zm20.27-17.37-3.45-.83v-1.37a6.846,6.846,0,0,0,3.19-5.78v-3.85a6.83,6.83,0,0,0-11.95-4.53,9.116,9.116,0,0,0-8.75-6.59h0a9.134,9.134,0,0,0-8.76,6.61,6.825,6.825,0,0,0-11.96,4.51v3.85a6.832,6.832,0,0,0,3.2,5.78v1.37l-3.46.83a7.171,7.171,0,0,0-5.53,7.01v6.95a1.033,1.033,0,0,0,1.04,1.04h8.27v3.1a1.039,1.039,0,0,0,1.04,1.04h11.35a1.035,1.035,0,1,0,0-2.07h-4.62v-4.56a1.035,1.035,0,0,0-2.07,0v4.56h-3.63v-4.67a7.542,7.542,0,0,1,5.8-7.35l5.09-1.22,3.28,7.45a1.028,1.028,0,0,0,.95.62h0a1.015,1.015,0,0,0,.94-0.62l3.28-7.44,5.07,1.21a7.54,7.54,0,0,1,5.81,7.35v1.16a0.9,0.9,0,0,0-.09.4,0.946,0.946,0,0,0,.09.41v2.7h-3.61v-4.56a1.035,1.035,0,0,0-2.07,0v4.56h-5.07a1.035,1.035,0,1,0,0,2.07h11.78a1.039,1.039,0,0,0,1.04-1.04v-3.1h8.29a1.033,1.033,0,0,0,1.04-1.04v-6.95A7.171,7.171,0,0,0,1449.47,1810.86Zm-7.09-16.6a4.774,4.774,0,0,1,4.76,4.77v0.36h-2.96a12.789,12.789,0,0,1-6.37-1.7A4.773,4.773,0,0,1,1442.38,1794.26Zm-4.77,8.45c0.01-.1.01-2.78,0.01-2.78a14.9,14.9,0,0,0,6.56,1.53h2.96v1.42a4.765,4.765,0,1,1-9.53,0v-0.17h0Zm-16.14-5.69a7.04,7.04,0,0,1,14.08,0v0.14l-3.84-2.26a1.029,1.029,0,0,0-1.32.23,7.814,7.814,0,0,1-6.01,2.8h-2.91v-0.91Zm-11.61,2.26v-0.25a4.76,4.76,0,0,1,9.33-1.34,12.789,12.789,0,0,1-6.37,1.7h-2.96v-0.11Zm0,3.6v-1.42h2.96a14.943,14.943,0,0,0,6.57-1.53v2.95A4.765,4.765,0,1,1,1409.86,1802.88Zm1.45,20.38v0.53h-3.1v-4.6a1.035,1.035,0,1,0-2.07,0v4.6h-2.07v-5.92a5.117,5.117,0,0,1,3.94-5l3.28-.78,2.15,5.13A9.6,9.6,0,0,0,1411.31,1823.26Zm3.31-8.57-1.57-3.77c0-.02.01-0.05,0.01-0.07v-1.32a6.664,6.664,0,0,0,1.56.19,6.815,6.815,0,0,0,1.57-.19v1.25a0.127,0.127,0,0,0-.01.06c0,0.03.01,0.07,0.01,0.1Zm4.08-.8a9.284,9.284,0,0,0-1.75.61l1.01-2.42,3.28,0.79a4.912,4.912,0,0,1,.74.24Zm5.14-2.15a7.074,7.074,0,0,0-2.12-.89l-3.46-.83v-1.35a7.046,7.046,0,0,0,2.14-2.14,9.1,9.1,0,0,0,3.44,3.68v1.53Zm7.24,1.53-2.58,5.88-2.59-5.89v-2.13a9.286,9.286,0,0,0,2.6.38,9.072,9.072,0,0,0,2.57-.37v2.13h0Zm-2.57-3.83a7.05,7.05,0,0,1-7.04-7.04V1800h2.91a9.864,9.864,0,0,0,7-2.89l4.16,2.45v3.08A7.047,7.047,0,0,1,1428.51,1809.44Zm4.64,0.79h0a9.178,9.178,0,0,0,3.47-3.68,6.917,6.917,0,0,0,2.12,2.12v1.35l-3.46.83a7.565,7.565,0,0,0-2.13.89v-1.51h0Zm5.12,3.67-3.27-.78a4.224,4.224,0,0,1,.76-0.25l3.27-.79,1.02,2.43A9.578,9.578,0,0,0,1438.27,1813.9Zm2.54-2.95v-1.42a6.815,6.815,0,0,0,1.57.19,6.664,6.664,0,0,0,1.56-.19v1.32a0.433,0.433,0,0,0,.01.05l-1.58,3.79Zm12.12,12.84h-2.07v-4.6a1.035,1.035,0,1,0-2.07,0v4.6h-3.12v-0.53a9.58,9.58,0,0,0-2.12-6.03l2.15-5.15,3.29,0.79a5.117,5.117,0,0,1,3.94,5v5.92Zm-27.17-22.55a1.038,1.038,0,0,0-1.46,0,1.032,1.032,0,1,0,1.46,1.46A1.038,1.038,0,0,0,1425.76,1801.24Zm6.92,0a1.032,1.032,0,1,0-1.46,1.46A1.032,1.032,0,1,0,1432.68,1801.24Zm-2.19,3.49a1.02,1.02,0,0,0-1.46,0,0.8,0.8,0,0,1-1.11,0,1.036,1.036,0,1,0-1.47,1.46,2.873,2.873,0,0,0,4.04,0A1.02,1.02,0,0,0,1430.49,1804.73Z" transform="translate(-1402 -1787.91)"/>
</svg>
