<svg xmlns="http://www.w3.org/2000/svg" width="47" height="40" viewBox="0 0 47 40">
  <defs>
    <style>
      .cls-1 {
        fill: #001923;
        fill-rule: evenodd;
      }
    </style>
  </defs>
  <path id="приемущества_1" data-name="приемущества 1" class="cls-1" d="M513.864,1813.1a1.009,1.009,0,0,0-1.069,1.06v13.68a1,1,0,0,1-1.068,1.05H473.273a1,1,0,0,1-1.068-1.05v-13.68a1.069,1.069,0,0,0-2.137,0v13.68a3.126,3.126,0,0,0,3.205,3.16h38.454a3.126,3.126,0,0,0,3.205-3.16v-13.68A1.008,1.008,0,0,0,513.864,1813.1Zm-1.069-14.73h-40.59a3.126,3.126,0,0,0-3.2,3.16v6.73a3.176,3.176,0,0,0,2.457,3.06l16.77,3.68v3.37a1,1,0,0,0,1.068,1.05H495.7a1,1,0,0,0,1.069-1.05V1815l16.77-3.68a3.176,3.176,0,0,0,2.457-3.06v-6.73A3.126,3.126,0,0,0,512.795,1798.37Zm-18.159,18.95h-4.272v-4.22h4.272v4.22Zm19.228-9.06a1.037,1.037,0,0,1-.855,1.06l-16.236,3.57v-0.84A1,1,0,0,0,495.7,1811H489.3a1,1,0,0,0-1.068,1.05v0.84l-16.236-3.57a1.037,1.037,0,0,1-.855-1.06v-6.73a1,1,0,0,1,1.069-1.06h40.59a1,1,0,0,1,1.069,1.06v6.73ZM497.841,1791H487.159a3.126,3.126,0,0,0-3.2,3.16v1.05a1.068,1.068,0,0,0,2.136,0v-1.05a1.008,1.008,0,0,1,1.068-1.06h10.682a1.008,1.008,0,0,1,1.068,1.06v1.05a1.068,1.068,0,0,0,2.136,0v-1.05A3.126,3.126,0,0,0,497.841,1791Z" transform="translate(-469 -1791)"/>
</svg>
