<svg xmlns="http://www.w3.org/2000/svg" width="43" height="43" viewBox="0 0 43 43">
  <defs>
    <style>
      .cls-1 {
        fill: #001923;
        fill-rule: evenodd;
      }
    </style>
  </defs>
  <path id="приемущества_2" data-name="приемущества 2" class="cls-1" d="M728.105,1788.25a0.831,0.831,0,0,0-1.188,0,0.831,0.831,0,0,0,0,1.18A0.837,0.837,0,1,0,728.105,1788.25Zm20.649,19.82-8.656-8.66v-5.2a1.686,1.686,0,0,0-1.68-1.68h-1.68v-3.69a0.842,0.842,0,0,0-.84-0.84h-5.235a0.84,0.84,0,1,0,0,1.68h4.395v2.85H719.941v-2.85h4.423a0.84,0.84,0,0,0,0-1.68H719.1a0.842,0.842,0,0,0-.84.84v3.69h-1.68a1.686,1.686,0,0,0-1.68,1.68v30.57h-1.847a0.842,0.842,0,0,0-.84.84v3.7H707.68v-18.98h5.375a0.84,0.84,0,0,0,0-1.68H706.84a0.842,0.842,0,0,0-.84.84v20.66a0.842,0.842,0,0,0,.84.84h41.32a0.842,0.842,0,0,0,.84-0.84v-21.5A0.825,0.825,0,0,0,748.754,1808.07Zm-16.5-13.86h6.159v6.39h-6.159v-6.39Zm0,8.07h6.159v6.38h-6.159v-6.38Zm0,8.06h6.159v6.38h-6.159v-6.38Zm0,8.06h6.159v6.38h-6.159v-6.38Zm-7.838-24.19h6.158v6.39h-6.158v-6.39Zm0,8.07h6.158v6.38h-6.158v-6.38Zm0,8.06h6.158v6.38h-6.158v-6.38Zm0,8.06h6.158v6.38h-6.158v-6.38Zm-7.839-24.19h6.159v6.39h-6.159v-6.39Zm0,8.07h6.159v6.38h-6.159v-6.38Zm0,8.06h6.159v6.38h-6.159v-6.38Zm0,8.06h6.159v6.38h-6.159v-6.38Zm24.523,10.92H713.894v-2.86h27.211v2.86Zm6.215,0h-4.535v-3.7a0.842,0.842,0,0,0-.84-0.84H740.1v-2.36h2.673a0.84,0.84,0,1,0,0-1.68H740.1v-2.35h2.673a0.835,0.835,0,1,0,0-1.67H740.1v-2.35h2.673a0.84,0.84,0,1,0,0-1.68H740.1v-2.35h2.673a0.84,0.84,0,1,0,0-1.68H740.1v-6.88l7.222,7.23v20.31Zm-35.435-7.68a0.84,0.84,0,0,0-1.434.6,0.847,0.847,0,0,0,.246.59,0.831,0.831,0,0,0,1.188,0,0.847,0.847,0,0,0,.246-0.59A0.87,0.87,0,0,0,711.885,1821.64Zm-0.594-9.39a0.836,0.836,0,0,0-.84.84v5.98a0.84,0.84,0,0,0,1.68,0v-5.98A0.836,0.836,0,0,0,711.291,1812.25Z" transform="translate(-706 -1788)"/>
</svg>
