<svg xmlns="http://www.w3.org/2000/svg" width="28" height="19" viewBox="0 0 28 19">
  <defs>
    <style>
      .cls-1 {
        fill: #fff;
        fill-rule: evenodd;
      }
    </style>
  </defs>
  <path id="_360" data-name="360" class="cls-1" d="M699.838,715.8a0.582,0.582,0,1,0-.321,1.118c2.662,0.759,4.316,1.859,4.316,2.872,0,0.742-.9,1.555-2.482,2.233a23.826,23.826,0,0,1-6.935,1.536l-2.39-.032h-0.008a0.582,0.582,0,0,0-.008,1.163l2.42,0.032h0.008l0.052,0a25.008,25.008,0,0,0,7.323-1.629c2.634-1.132,3.187-2.419,3.187-3.3C705,718.164,703.167,716.747,699.838,715.8Zm-17.187-.663a0.582,0.582,0,1,0,0,1.163h2.4v2.4h-2.4a0.582,0.582,0,1,0,0,1.163h2.982a0.583,0.583,0,0,0,.584-0.582v-7.131a0.583,0.583,0,0,0-.584-0.581h-2.982a0.581,0.581,0,1,0,0,1.162h2.4v2.4h-2.4Zm5.367,4.729H691.6a0.582,0.582,0,0,0,.583-0.581v-3.566a0.583,0.583,0,0,0-.583-0.582h-3v-2.4H691a0.581,0.581,0,1,0,0-1.162h-2.982a0.582,0.582,0,0,0-.583.581v7.132A0.582,0.582,0,0,0,688.018,719.864ZM688.6,716.3h2.411v2.4H688.6v-2.4Zm5.381,3.566h3.578a0.582,0.582,0,0,0,.583-0.581v-7.132a0.582,0.582,0,0,0-.583-0.581h-3.578a0.582,0.582,0,0,0-.583.581v7.132A0.582,0.582,0,0,0,693.982,719.864Zm0.583-7.132h2.411V718.7h-2.411v-5.969h0Zm-6.9,8.578a0.583,0.583,0,0,0-.891.751l1.3,1.537A25.363,25.363,0,0,1,681,722.165c-1.8-.709-2.834-1.575-2.834-2.377,0-.931,1.384-1.934,3.7-2.684a0.582,0.582,0,1,0-.36-1.106,10.582,10.582,0,0,0-3.18,1.542,2.889,2.889,0,0,0-1.33,2.248c0,1.343,1.235,2.539,3.572,3.458a26.332,26.332,0,0,0,7.247,1.5l-1.164,1.285a0.583,0.583,0,0,0,.867.779l2.122-2.345a0.576,0.576,0,0,0,.15-0.389v-0.045a0.58,0.58,0,0,0-.137-0.375Zm11.582-9.77h2.385a0.582,0.582,0,0,0,.583-0.581v-2.378a0.582,0.582,0,0,0-.583-0.581h-2.385a0.582,0.582,0,0,0-.583.581v2.378A0.582,0.582,0,0,0,699.249,711.54Zm0.583-2.378h1.218v1.215h-1.218v-1.215Z" transform="translate(-677 -708)"/>
</svg>
