<svg id="bg" xmlns="http://www.w3.org/2000/svg" width="2021" height="367" viewBox="0 0 2021 367">
  <metadata><?xpacket begin="﻿" id="W5M0MpCehiHzreSzNTczkc9d"?>
<x:xmpmeta xmlns:x="adobe:ns:meta/" x:xmptk="Adobe XMP Core 5.6-c142 79.160924, 2017/07/13-01:06:39        ">
   <rdf:RDF xmlns:rdf="http://www.w3.org/1999/02/22-rdf-syntax-ns#">
      <rdf:Description rdf:about=""/>
   </rdf:RDF>
</x:xmpmeta>
                                                                                                    
                                                                                                    
                                                                                                    
                                                                                                    
                                                                                                    
                                                                                                    
                                                                                                    
                                                                                                    
                                                                                                    
                                                                                                    
                                                                                                    
                                                                                                    
                                                                                                    
                                                                                                    
                                                                                                    
                                                                                                    
                                                                                                    
                                                                                                    
                                                                                                    
                                                                                                    
                           
<?xpacket end="w"?></metadata>
<defs>
    <style>
      .cls-1 {
        fill: #f6f6f7;
      }

      .cls-2, .cls-3 {
        fill: #dededf;
      }

      .cls-2, .cls-3, .cls-4, .cls-5 {
        fill-rule: evenodd;
      }

      .cls-2 {
        opacity: 0.6;
      }

      .cls-4 {
        fill: #88dcf8;
        opacity: 0.5;
      }

      .cls-4, .cls-5 {
        mix-blend-mode: luminosity;
      }

      .cls-5 {
        fill: #006a96;
        opacity: 0.15;
      }
    </style>
  </defs>
  <rect class="cls-1" width="2021" height="367"/>
  <path id="Shape_4_copy_2" data-name="Shape 4 copy 2" class="cls-2" d="M1767,57s71.73,48.454,64,118,27,147,106,166c0,0-134.82,16.273-157-106s-29.82-152.091-76-174S1767,57,1767,57Z"/>
  <path class="cls-3" d="M1717,57s71.73,48.454,64,118,27,147,106,166c0,0-134.82,16.273-157-106s-29.82-152.091-76-174S1717,57,1717,57Z"/>
  <path class="cls-4" d="M482,71s-83.77,13.954-86,236c0,0-50.362-11.583-77-27,0,0,20.009-137.644,118-202,0,0-126.592,56.667-142,193,0,0-58.254-29.509-65-39,0,0,59.019-126.416,179-166s-43,0-43,0S227.554,138.115,207,216c0,0-51.1-39.568-67-71,0,0,65.347-77.459,122-86s-25-16-25-16-97.831,60.882-111,80c0,0-26.812-40.412-26-70S251,9,251,9,458.117-2.882,462,2s33.817,28.811,35,33S482,71,482,71Z"/>
  <path id="Shape_4_copy" data-name="Shape 4 copy" class="cls-5" d="M67,56S97,286,417,343l-84,3S69.651,276.323,48,50ZM26,56S47,307,367,364l-84,3S24.5,303.4,0,50Z"/>
</svg>
