<svg xmlns="http://www.w3.org/2000/svg" width="423" height="317.969" viewBox="0 0 423 317.969">
  <metadata><?xpacket begin="﻿" id="W5M0MpCehiHzreSzNTczkc9d"?>
<x:xmpmeta xmlns:x="adobe:ns:meta/" x:xmptk="Adobe XMP Core 5.6-c142 79.160924, 2017/07/13-01:06:39        ">
   <rdf:RDF xmlns:rdf="http://www.w3.org/1999/02/22-rdf-syntax-ns#">
      <rdf:Description rdf:about=""/>
   </rdf:RDF>
</x:xmpmeta>
                                                                                                    
                                                                                                    
                                                                                                    
                                                                                                    
                                                                                                    
                                                                                                    
                                                                                                    
                                                                                                    
                                                                                                    
                                                                                                    
                                                                                                    
                                                                                                    
                                                                                                    
                                                                                                    
                                                                                                    
                                                                                                    
                                                                                                    
                                                                                                    
                                                                                                    
                                                                                                    
                           
<?xpacket end="w"?></metadata>
<defs>
    <style>
      .cls-1 {
        fill: #e5e5e6;
        fill-rule: evenodd;
        mix-blend-mode: luminosity;
      }
    </style>
  </defs>
  <path id="Shape_4_copy" data-name="Shape 4 copy" class="cls-1" d="M696.182,567.023S624.893,578.957,623,768.85c0,0-42.858-9.906-65.527-23.09,0,0,17.028-117.713,100.418-172.75,0,0-107.73,48.461-120.842,165.053,0,0-49.574-25.236-55.315-33.353,0,0,50.225-108.111,152.329-141.963s-36.593,0-36.593,0-117.818,61.674-135.309,128.28c0,0-43.485-33.839-57.017-60.719,0,0,55.61-66.242,103.822-73.547s-21.275-13.683-21.275-13.683-83.254,52.065-94.461,68.416c0,0-22.817-34.56-22.126-59.864S499.6,514,499.6,514s176.257-10.161,179.561-5.986,28.778,24.639,29.785,28.221S696.182,567.023,696.182,567.023ZM343.017,554.2s25.53,196.695,297.85,245.441v1.711s-293.27-1.5-314.019-252.284Zm-34.891,0S283.394,788.021,639.165,821.872l-0.324,1.548C660.463,823.111,291.584,864.1,286,549.064Z" transform="translate(-286 -507.031)"/>
</svg>
