<svg xmlns="http://www.w3.org/2000/svg" width="498" height="367" viewBox="0 0 498 367">
  <metadata><?xpacket begin="﻿" id="W5M0MpCehiHzreSzNTczkc9d"?>
<x:xmpmeta xmlns:x="adobe:ns:meta/" x:xmptk="Adobe XMP Core 5.6-c142 79.160924, 2017/07/13-01:06:39        ">
   <rdf:RDF xmlns:rdf="http://www.w3.org/1999/02/22-rdf-syntax-ns#">
      <rdf:Description rdf:about=""/>
   </rdf:RDF>
</x:xmpmeta>
                                                                                                    
                                                                                                    
                                                                                                    
                                                                                                    
                                                                                                    
                                                                                                    
                                                                                                    
                                                                                                    
                                                                                                    
                                                                                                    
                                                                                                    
                                                                                                    
                                                                                                    
                                                                                                    
                                                                                                    
                                                                                                    
                                                                                                    
                                                                                                    
                                                                                                    
                                                                                                    
                           
<?xpacket end="w"?></metadata>
<defs>
    <style>
      .cls-1 {
        fill: #fff;
        fill-rule: evenodd;
        opacity: 0.1;
      }
    </style>
  </defs>
  <path id="Shape_4_copy_3" data-name="Shape 4 copy 3" class="cls-1" d="M482,71s-83.77,13.954-86,236c0,0-50.362-11.583-77-27,0,0,20.009-137.643,118-202,0,0-126.592,56.667-142,193,0,0-58.254-29.509-65-39,0,0,59.019-126.416,179-166s-43,0-43,0S227.554,138.115,207,216c0,0-51.1-39.569-67-71,0,0,65.347-77.459,122-86s-25-16-25-16-97.831,60.882-111,80c0,0-26.812-40.411-26-70S251,9,251,9,458.117-2.882,462,2s33.817,28.811,35,33S482,71,482,71ZM67,56S97,286,417,343l-84,3S69.651,276.323,48,50ZM26,56S47,307,367,364l-84,3S24.5,303.4,0,50Z"/>
</svg>
