<svg xmlns="http://www.w3.org/2000/svg" width="50" height="35" viewBox="0 0 50 35">
  <metadata><?xpacket begin="﻿" id="W5M0MpCehiHzreSzNTczkc9d"?>
<x:xmpmeta xmlns:x="adobe:ns:meta/" x:xmptk="Adobe XMP Core 5.6-c142 79.160924, 2017/07/13-01:06:39        ">
   <rdf:RDF xmlns:rdf="http://www.w3.org/1999/02/22-rdf-syntax-ns#">
      <rdf:Description rdf:about=""/>
   </rdf:RDF>
</x:xmpmeta>
                                                                                                    
                                                                                                    
                                                                                                    
                                                                                                    
                                                                                                    
                                                                                                    
                                                                                                    
                                                                                                    
                                                                                                    
                                                                                                    
                                                                                                    
                                                                                                    
                                                                                                    
                                                                                                    
                                                                                                    
                                                                                                    
                                                                                                    
                                                                                                    
                                                                                                    
                                                                                                    
                           
<?xpacket end="w"?></metadata>
<defs>
    <style>
      .cls-1 {
        fill: #001923;
        fill-rule: evenodd;
      }
    </style>
  </defs>
  <path class="cls-1" d="M983.051,1000c-1.805-2.13-5.137-3-11.5-3h-23.1c-6.509,0-9.9.926-11.7,3.2-1.753,2.21-1.753,5.48-1.753,9.99v8.61c0,8.76,2.08,13.2,13.449,13.2h23.1c5.519,0,8.577-.77,10.555-2.65,2.029-1.93,2.895-5.09,2.895-10.55v-8.61C985,1005.43,984.864,1002.15,983.051,1000ZM967.1,1015.69l-10.49,5.45a1.638,1.638,0,0,1-.747.18,1.568,1.568,0,0,1-.836-0.23,1.6,1.6,0,0,1-.777-1.37v-10.87a1.6,1.6,0,0,1,.776-1.37,1.644,1.644,0,0,1,1.58-.06l10.49,5.42A1.6,1.6,0,0,1,967.1,1015.69Z" transform="translate(-935 -997)"/>
</svg>
